<svg width="32" height="32" viewBox="0 0 32 32" fill="none" xmlns="http://www.w3.org/2000/svg">
<path d="M16 32C24.8366 32 32 24.8366 32 16C32 7.16344 24.8366 0 16 0C7.16344 0 0 7.16344 0 16C0 24.8366 7.16344 32 16 32Z" fill="url(#paint0_linear)"/>
<path d="M11.3125 15.0625C13.3807 15.0625 15.0625 13.3807 15.0625 11.3125C15.0625 9.24431 13.3807 7.5625 11.3125 7.5625C9.24433 7.5625 7.56252 9.24431 7.56252 11.3125C7.56252 13.3807 9.24433 15.0625 11.3125 15.0625ZM24.1628 7.83719C23.7966 7.471 23.2033 7.471 22.8371 7.83719L7.83714 22.8372C7.47095 23.2034 7.47095 23.7967 7.83714 24.1629C8.02027 24.346 8.26014 24.4376 8.49995 24.4376C8.73977 24.4376 8.9797 24.346 9.16277 24.1629L24.1628 9.16288C24.5291 8.79663 24.5291 8.20337 24.1628 7.83719ZM20.6875 16.9375C18.6193 16.9375 16.9375 18.6193 16.9375 20.6875C16.9375 22.7557 18.6193 24.4375 20.6875 24.4375C22.7557 24.4375 24.4375 22.7557 24.4375 20.6875C24.4375 18.6193 22.7557 16.9375 20.6875 16.9375Z" fill="url(#paint1_linear)"/>
<defs>
<linearGradient id="paint0_linear" x1="16" y1="32" x2="16" y2="0" gradientUnits="userSpaceOnUse">
<stop stop-color="#FD3A84"/>
<stop offset="1" stop-color="#FFA68D"/>
</linearGradient>
<linearGradient id="paint1_linear" x1="16" y1="24.4375" x2="16" y2="7.5625" gradientUnits="userSpaceOnUse">
<stop stop-color="#FFC2CC"/>
<stop offset="1" stop-color="#FFF2F4"/>
</linearGradient>
</defs>
</svg>
