<svg width="12" height="14" viewBox="0 0 12 14" fill="none" xmlns="http://www.w3.org/2000/svg">
<path d="M0.999981 8.00006L8.58998 8.00006L5.28998 11.2901C5.10168 11.4784 4.99589 11.7338 4.99589 12.0001C4.99589 12.2664 5.10168 12.5218 5.28998 12.7101C5.47828 12.8984 5.73368 13.0041 5.99998 13.0041C6.26628 13.0041 6.52168 12.8984 6.70998 12.7101L11.71 7.71006C11.801 7.61496 11.8724 7.50281 11.92 7.38006C12.02 7.1366 12.02 6.86352 11.92 6.62006C11.8724 6.49731 11.801 6.38516 11.71 6.29006L6.70998 1.29006C6.61702 1.19633 6.50642 1.12194 6.38456 1.07117C6.2627 1.0204 6.13199 0.994261 5.99998 0.994261C5.86797 0.994261 5.73726 1.0204 5.6154 1.07117C5.49355 1.12194 5.38294 1.19633 5.28998 1.29006C5.19625 1.38302 5.12186 1.49362 5.07109 1.61548C5.02032 1.73734 4.99418 1.86805 4.99418 2.00006C4.99418 2.13207 5.02032 2.26278 5.07109 2.38464C5.12186 2.5065 5.19625 2.6171 5.28998 2.71006L8.58998 6.00006L0.999981 6.00006C0.734765 6.00006 0.48041 6.10542 0.292874 6.29295C0.105337 6.48049 -1.90016e-05 6.73484 -1.90248e-05 7.00006C-1.9048e-05 7.26527 0.105337 7.51963 0.292873 7.70716C0.48041 7.8947 0.734764 8.00006 0.999981 8.00006Z" fill="#6B6B6B"/>
</svg>
