<svg width="24" height="32" viewBox="0 0 24 32" fill="none" xmlns="http://www.w3.org/2000/svg">
<path d="M16.6875 0H11.0625C10.8188 0 10.575 0.09375 10.4063 0.281188L1.03131 9.65619C0.843812 9.825 0.75 10.0688 0.75 10.3125V31.0625C0.75 31.5874 1.16244 32 1.6875 32H22.3125C22.8376 32 23.25 31.5874 23.25 31.0625V6.5625C23.25 2.94375 20.3061 0 16.6875 0ZM8.53131 7.78119L12.2813 4.03119C12.45 3.84375 12.6938 3.75 12.9375 3.75H16.6875C18.2439 3.75 19.5 5.00625 19.5 6.5625V8.4375C19.5 8.96244 19.0876 9.375 18.5625 9.375H9.1875C8.81256 9.375 8.475 9.15 8.32506 8.79375C8.17494 8.4375 8.25 8.04369 8.53131 7.78119ZM19.2187 25.7187C19.5938 26.0749 19.5938 26.6749 19.2187 27.0312C18.8814 27.4062 18.2437 27.4063 17.9062 27.0312L16.2938 25.4375H7.70619L6.09369 27.0312C5.75644 27.4062 5.11869 27.4063 4.78125 27.0312C4.40613 26.6749 4.40613 26.0749 4.78125 25.7187L6.37494 24.1062V15.3937L4.78125 13.7812C4.40613 13.4249 4.40613 12.8249 4.78125 12.4687C5.13763 12.0938 5.73731 12.0938 6.09369 12.4687L7.70619 14.0625H16.2938L17.9063 12.4687C18.2627 12.0938 18.8624 12.0938 19.2188 12.4687C19.5939 12.8249 19.5939 13.4249 19.2188 13.7812L17.625 15.3937V24.1062L19.2187 25.7187Z" fill="url(#paint0_linear)"/>
<defs>
<linearGradient id="paint0_linear" x1="12" y1="32" x2="12" y2="0" gradientUnits="userSpaceOnUse">
<stop stop-color="#FD3A84"/>
<stop offset="1" stop-color="#FFA68D"/>
</linearGradient>
</defs>
</svg>
