<svg width="32" height="32" viewBox="0 0 32 32" fill="none" xmlns="http://www.w3.org/2000/svg">
<path d="M26 32H6C2.686 32 0 29.314 0 26V6C0 2.686 2.686 0 6 0H26C29.314 0 32 2.686 32 6V26C32 29.314 29.314 32 26 32Z" fill="#FFE6E2"/>
<path d="M18.7272 10.657H20.1872V8.113C19.9362 8.078 19.0692 8 18.0602 8C15.9542 8 14.5122 9.325 14.5122 11.759V14H12.1882V16.844H14.5122V24L17.3612 24.001V16.845H19.5912L19.9452 14.001H17.3602V12.042C17.3612 11.22 17.5822 10.657 18.7272 10.657Z" fill="#FC573B"/>
</svg>
