<svg width="32" height="32" viewBox="0 0 32 32" fill="none" xmlns="http://www.w3.org/2000/svg">
<path d="M22.9997 8.56281L26.3746 10.6252V2.81296C26.3746 2.29523 25.9549 1.87549 25.4372 1.87549H23.5622C23.0445 1.87549 22.6248 2.29523 22.6248 2.81296V7.81283C22.6248 8.10794 22.7637 8.38575 22.9997 8.56281ZM15.9999 3.51607L4.68774 12.1208V26.9373L8.43764 31.9997H23.5622L27.3121 26.9373V12.1208L15.9999 3.51607Z" fill="url(#paint0_linear)"/>
<path d="M9.28793 26.5062C8.91812 24.8246 7.41635 23.5624 5.62527 23.5624C3.8342 23.5624 2.33242 24.8246 1.96262 26.5062C0.826151 26.8674 0.000423266 27.9328 0.000423266 29.1873C0.000423266 30.7381 1.26208 31.9997 2.81285 31.9997H8.4377C9.98847 31.9997 11.2501 30.7381 11.2501 29.1873C11.2501 27.9327 10.4244 26.8674 9.28793 26.5062ZM30.0374 26.5062C29.6676 24.8246 28.1658 23.5624 26.3747 23.5624C24.5849 23.5624 23.084 24.8227 22.7129 26.5025C21.5734 26.854 20.6874 27.9116 20.6874 29.1873C20.6874 30.7438 22.0083 31.9997 23.5623 31.9997H29.1872C30.7379 31.9997 31.9996 30.7381 31.9996 29.1873C31.9996 27.9327 31.1738 26.8674 30.0374 26.5062ZM18.3624 14.9064C17.3087 14.9064 16.5316 15.4098 15.9999 15.953C15.4683 15.4098 14.6913 14.9064 13.6375 14.9064C11.8081 14.9064 10.3751 16.43 10.3751 18.375C10.3751 20.4503 12.0396 21.8732 14.3435 23.8426C14.6777 24.1282 15.0232 24.4237 15.3843 24.7381C15.5608 24.8917 15.7804 24.9686 16 24.9686C16.2196 24.9686 16.4392 24.8918 16.6157 24.7381C16.9768 24.4236 17.3223 24.1282 17.6565 23.8426C19.9603 21.8732 21.6249 20.4503 21.6249 18.375C21.6249 16.43 20.1918 14.9064 18.3624 14.9064ZM1.31295 14.4396C1.62263 14.8525 2.20786 14.9374 2.62217 14.6295L16.0001 4.45352L29.378 14.6295C29.7929 14.9379 30.378 14.8519 30.6872 14.4396L31.8126 12.9392C32.1241 12.5239 32.0386 11.9343 31.6223 11.6245L16.5596 0.185827C16.2275 -0.0612913 15.7726 -0.0612913 15.4405 0.185827L0.377851 11.6245C-0.0385132 11.9343 -0.123948 12.524 0.187481 12.9392L1.31295 14.4396Z" fill="url(#paint1_linear)"/>
<defs>
<linearGradient id="paint0_linear" x1="15.9999" y1="31.9997" x2="15.9999" y2="1.87549" gradientUnits="userSpaceOnUse">
<stop stop-color="#00B59C"/>
<stop offset="1" stop-color="#9CFFAC"/>
</linearGradient>
<linearGradient id="paint1_linear" x1="16" y1="31.9996" x2="16" y2="0.000518798" gradientUnits="userSpaceOnUse">
<stop stop-color="#C3FFE8"/>
<stop offset="0.9973" stop-color="#F0FFF4"/>
</linearGradient>
</defs>
</svg>
