<svg width="16" height="16" viewBox="0 0 16 16" fill="none" xmlns="http://www.w3.org/2000/svg">
<path d="M11.2989 0.050143C9.82694 -0.018857 6.18094 -0.015857 4.70694 0.050143C3.41194 0.111143 2.26994 0.424143 1.34994 1.34414C-0.18906 2.88314 0.00794042 4.95614 0.00794042 7.99714C0.00794042 11.1091 -0.16506 13.1351 1.34994 14.6501C2.89394 16.1941 4.99794 15.9921 8.00294 15.9921C11.6859 15.9921 15.7159 16.3451 15.9499 11.2931C16.0189 9.82014 16.0159 6.17514 15.9499 4.70214C15.8179 1.89314 14.3099 0.190143 11.2989 0.050143ZM13.6279 13.6321C12.6189 14.6411 11.2199 14.5511 7.98194 14.5511C4.64894 14.5511 3.31194 14.6001 2.33594 13.6221C1.21194 12.5041 1.41594 10.7081 1.41594 7.98714C1.41594 1.33714 1.79694 1.42214 7.97194 1.42214L8.00194 1.44214C14.6239 1.44214 14.5559 1.87114 14.5559 7.99714C14.5569 11.2911 14.6199 12.6361 13.6279 13.6321Z" fill="#FC573B"/>
</svg>
