<svg width="32" height="32" viewBox="0 0 32 32" fill="none" xmlns="http://www.w3.org/2000/svg">
<path d="M26 32H6C2.686 32 0 29.314 0 26V6C0 2.686 2.686 0 6 0H26C29.314 0 32 2.686 32 6V26C32 29.314 29.314 32 26 32Z" fill="#FFE6E2"/>
<path d="M16.003 11.8921C13.734 11.8921 11.8979 13.7311 11.8979 15.9971C11.8979 18.2651 13.737 20.1021 16.003 20.1021C18.272 20.1021 20.108 18.2631 20.108 15.9971C20.108 13.7281 18.269 11.8921 16.003 11.8921ZM16.003 18.6621C14.531 18.6621 13.338 17.4691 13.338 15.9971C13.338 14.5251 14.531 13.3321 16.003 13.3321C17.475 13.3321 18.668 14.5241 18.668 15.9971C18.668 17.4691 17.475 18.6621 16.003 18.6621Z" fill="#FD907E"/>
<path d="M19.2989 8.05014C17.8269 7.98114 14.1809 7.98414 12.7069 8.05014C11.4119 8.11114 10.2699 8.42414 9.34994 9.34414C7.81094 10.8831 8.00794 12.9561 8.00794 15.9971C8.00794 19.1091 7.83494 21.1351 9.34994 22.6501C10.8939 24.1941 12.9979 23.9921 16.0029 23.9921C19.6859 23.9921 23.7159 24.3451 23.9499 19.2931C24.0189 17.8201 24.0159 14.1751 23.9499 12.7021C23.8179 9.89314 22.3099 8.19014 19.2989 8.05014ZM21.6279 21.6321C20.6189 22.6411 19.2199 22.5511 15.9819 22.5511C12.6489 22.5511 11.3119 22.6001 10.3359 21.6221C9.21194 20.5041 9.41594 18.7081 9.41594 15.9871C9.41594 9.33714 9.79694 9.42214 15.9719 9.42214L16.0019 9.44214C22.6239 9.44214 22.5559 9.87114 22.5559 15.9971C22.5569 19.2911 22.6199 20.6361 21.6279 21.6321Z" fill="#FC573B"/>
<path d="M20.2708 12.689C20.8004 12.689 21.2298 12.2596 21.2298 11.73C21.2298 11.2004 20.8004 10.771 20.2708 10.771C19.7411 10.771 19.3118 11.2004 19.3118 11.73C19.3118 12.2596 19.7411 12.689 20.2708 12.689Z" fill="#FD907E"/>
</svg>
