<svg width="18" height="32" viewBox="0 0 18 32" fill="none" xmlns="http://www.w3.org/2000/svg">
<path d="M2.5625 15.3125L0.5625 16V29.1875C0.5625 29.7052 0.98225 30.125 1.5 30.125H2.4375L3.125 31.0625L4.3125 30.125H13.6875L14.9375 31.0625L15.5625 30.125H16.5C17.0177 30.125 17.4375 29.7052 17.4375 29.1875V16L15.5 15.3125H2.5625ZM16.5 0H1.5C0.98225 0 0.5625 0.41975 0.5625 0.9375V12.25L2.5625 13.0625H14.9375L17.4375 12.25V0.9375C17.4375 0.41975 17.0177 0 16.5 0Z" fill="url(#paint0_linear)"/>
<defs>
<linearGradient id="paint0_linear" x1="9" y1="31.0625" x2="9" y2="0" gradientUnits="userSpaceOnUse">
<stop stop-color="#5558FF"/>
<stop offset="1" stop-color="#00C0FF"/>
</linearGradient>
</defs>
</svg>
