<svg width="24" height="24" viewBox="0 0 24 24" fill="none" xmlns="http://www.w3.org/2000/svg">
<path d="M20.4375 7.03125H3.5625C3.17419 7.03125 2.85938 7.34606 2.85938 7.73438V23.2969C2.85938 23.6852 3.17419 24 3.5625 24H20.4375C20.8258 24 21.1406 23.6852 21.1406 23.2969V7.73438C21.1406 7.34606 20.8258 7.03125 20.4375 7.03125ZM9.89062 2.8125H14.1094L15.4219 3.42188L16.9219 2.8125C16.9219 2.62594 16.8478 2.44734 16.7161 2.31516L14.5781 0.205781C14.4464 0.0740625 14.2673 0 14.0808 0H9.91922C9.73266 0 9.55359 0.0740625 9.42188 0.205781L7.28391 2.31516C7.15219 2.44734 7.07812 2.62594 7.07812 2.8125L8.4375 3.42188L9.89062 2.8125Z" fill="url(#paint0_linear)"/>
<path d="M7.07812 9.14062C7.07812 9.52875 7.39312 9.84375 7.78125 9.84375H9.1875C9.57562 9.84375 9.89062 9.52875 9.89062 9.14062V2.8125H7.07812V9.14062ZM14.1094 2.8125V9.14062C14.1094 9.52875 14.4244 9.84375 14.8125 9.84375H16.2188C16.6069 9.84375 16.9219 9.52875 16.9219 9.14062V2.8125H14.1094Z" fill="url(#paint1_linear)"/>
<defs>
<linearGradient id="paint0_linear" x1="12" y1="24" x2="12" y2="0" gradientUnits="userSpaceOnUse">
<stop stop-color="#A93AFF"/>
<stop offset="1" stop-color="#FF81FF"/>
</linearGradient>
<linearGradient id="paint1_linear" x1="12" y1="9.84375" x2="12" y2="2.8125" gradientUnits="userSpaceOnUse">
<stop stop-color="#FFBEF9"/>
<stop offset="1" stop-color="#FFF1FF"/>
</linearGradient>
</defs>
</svg>
