<svg width="32" height="26" viewBox="0 0 32 26" fill="none" xmlns="http://www.w3.org/2000/svg">
<path d="M29.1875 0.8125H2.8125C2.29431 0.8125 1.875 1.23181 1.875 1.75V18.625C1.875 19.1432 2.29431 19.5625 2.8125 19.5625H3.75V23.3125H28.25V19.5625H29.1875C29.7057 19.5625 30.125 19.1432 30.125 18.625V1.75C30.125 1.23181 29.7057 0.8125 29.1875 0.8125Z" fill="url(#paint0_linear)"/>
<path d="M31.0625 19.5625H19.75C19.2318 19.5625 18.8125 19.9818 18.8125 20.5V21.4375H13.1875V20.5C13.1875 19.9818 12.7682 19.5625 12.25 19.5625H0.9375C0.419312 19.5625 0 19.9818 0 20.5C0 24.1182 2.94431 25.1875 6.5625 25.1875H25.4375C29.0557 25.1875 32 24.1182 32 20.5C32 19.9818 31.5807 19.5625 31.0625 19.5625ZM16 17.6875C16.7507 17.6875 17.4868 17.5621 18.1899 17.3131C18.677 17.1409 18.9334 16.6054 18.7612 16.1174C18.5873 15.6276 18.0544 15.3713 17.5637 15.5461C17.0638 15.7227 16.5365 15.8125 16 15.8125C13.4146 15.8125 11.3125 13.7096 11.3125 11.125C11.3125 8.54044 13.4146 6.4375 16 6.4375C18.5854 6.4375 20.6875 8.54044 20.6875 11.125C20.6875 11.6423 20.2664 12.0625 19.75 12.0625C19.2336 12.0625 18.8125 11.6423 18.8125 11.125C18.8125 9.57413 17.5509 8.3125 16 8.3125C14.4491 8.3125 13.1875 9.57413 13.1875 11.125C13.1875 12.6759 14.4491 13.9375 16 13.9375C16.7228 13.9375 17.3762 13.6557 17.875 13.206C18.3738 13.6557 19.0272 13.9375 19.75 13.9375C21.3009 13.9375 22.5625 12.6759 22.5625 11.125C22.5625 7.50681 19.6182 4.5625 16 4.5625C12.3818 4.5625 9.4375 7.50681 9.4375 11.125C9.4375 14.7432 12.3818 17.6875 16 17.6875ZM16 12.0625C15.4836 12.0625 15.0625 11.6423 15.0625 11.125C15.0625 10.6077 15.4836 10.1875 16 10.1875C16.5164 10.1875 16.9375 10.6077 16.9375 11.125C16.9375 11.6423 16.5164 12.0625 16 12.0625Z" fill="url(#paint1_linear)"/>
<defs>
<linearGradient id="paint0_linear" x1="16" y1="23.3125" x2="16" y2="0.8125" gradientUnits="userSpaceOnUse">
<stop stop-color="#5558FF"/>
<stop offset="1" stop-color="#00C0FF"/>
</linearGradient>
<linearGradient id="paint1_linear" x1="16" y1="25.1875" x2="16" y2="4.5625" gradientUnits="userSpaceOnUse">
<stop stop-color="#ADDCFF"/>
<stop offset="0.5028" stop-color="#EAF6FF"/>
<stop offset="1" stop-color="#EAF6FF"/>
</linearGradient>
</defs>
</svg>
