<svg width="155" height="24" viewBox="0 0 155 24" fill="none" xmlns="http://www.w3.org/2000/svg">
<path fill-rule="evenodd" clip-rule="evenodd" d="M18.5903 16.73C21.2948 11.524 22.9574 8.29966 28.3215 3.83075C43.7083 -5.75216 46.801 17.6901 35.887 19.5628C30.6258 20.4655 24.3438 16.8653 20.4796 15.255C22.4871 16.2 28.4214 20.2086 34.8406 21.2518C49.789 23.6811 50.1466 0.77456 38.3255 0.0200311C35.8611 -0.13721 31.3761 0.623884 28.2478 2.56555C24.745 4.73963 21.5319 7.85289 18.707 12.1145L18.5903 16.73Z" fill="#78B347"/>
<path fill-rule="evenodd" clip-rule="evenodd" d="M35.0039 21.2744C35.5987 21.3639 36.1705 21.4142 36.7188 21.4263C36.8116 21.4271 36.9057 21.4296 36.9973 21.429C37.0884 21.4289 37.1784 21.4271 37.2683 21.4249C37.388 21.4223 37.5052 21.4165 37.623 21.4115C49.7808 20.7348 49.362 0.724315 38.3255 0.0199568C37.8468 -0.0105724 37.2918 -0.00630483 36.6856 0.034346C49.3317 1.04569 47.4925 21.852 35.0039 21.2744Z" fill="#A8CF45"/>
<path fill-rule="evenodd" clip-rule="evenodd" d="M30.2121 2.4187L28.1579 2.62168C22.5194 6.73633 17.4184 15.1797 16.833 16.8669C13.9425 13.2921 10.324 11.6399 7.01904 11.0514C12.9153 13.5526 16.0547 19.6128 17.0044 24.0001C17.8736 18.4554 21.706 8.17273 30.2121 2.4187Z" fill="url(#paint0_linear)"/>
<path fill-rule="evenodd" clip-rule="evenodd" d="M16.833 16.8668C17.4184 15.1796 22.5194 6.73623 28.1579 2.62158C24.4795 4.49644 17.764 10.5808 16.2394 13.3741C15.2397 12.5537 11.5019 10.4608 7.01904 11.0513C10.324 11.6398 13.9425 13.292 16.833 16.8668Z" fill="#78B347"/>
<path fill-rule="evenodd" clip-rule="evenodd" d="M12.8339 11.1059C4.79081 5.37465 0.0732921 9.76592 0.000853788 13.0235C-0.0764538 16.4993 5.10327 20.0358 12.6594 15.6204L12.4276 15.3155C7.73183 17.295 3.17238 16.7587 3.15438 12.8548C3.13638 8.95099 7.57301 9.1868 12.8339 11.1059Z" fill="#78B347"/>
<path fill-rule="evenodd" clip-rule="evenodd" d="M9.73533 16.1782C6.12999 16.9583 3.16883 15.9992 3.15439 12.8547C3.13989 9.71254 6.01176 9.25264 9.87616 10.1935C5.7829 8.16639 2.16651 9.73689 2.34444 13.135C2.5136 16.3668 6.3583 17.8534 9.73533 16.1782Z" fill="#A8CF45"/>
<path fill-rule="evenodd" clip-rule="evenodd" d="M15.4931 4.90723C16.8454 4.90723 17.9417 6.0037 17.9417 7.35607C17.9417 8.70838 16.8454 9.80463 15.4931 9.80463C14.1407 9.80463 13.0444 8.70838 13.0444 7.35607C13.0444 6.0037 14.1407 4.90723 15.4931 4.90723Z" fill="#78B347"/>
<path fill-rule="evenodd" clip-rule="evenodd" d="M17.2244 9.08748C16.2682 10.0438 14.7178 10.0438 13.7615 9.08748C13.5873 8.91322 13.445 8.71916 13.3342 8.51262C15.6087 10.8508 19.0308 7.52557 16.4713 5.1106C16.7447 5.22965 17.0008 5.4009 17.2244 5.62456C18.1808 6.58081 18.1808 8.13123 17.2244 9.08748Z" fill="#A8CF45"/>
<path fill-rule="evenodd" clip-rule="evenodd" d="M53.3743 3.68372V14.1909C53.3743 14.5094 53.3182 14.7747 53.2061 14.987C53.0941 15.1994 52.9558 15.3231 52.7905 15.3585H57.7613C57.6197 15.3585 57.4782 15.2523 57.3366 15.0399C57.2304 14.8279 57.1775 14.5448 57.1775 14.1909V3.68372C57.1775 3.38887 57.2304 3.12943 57.3366 2.90539C57.4428 2.68134 57.5843 2.55151 57.7613 2.51611H52.7905C52.9321 2.51611 53.0649 2.63396 53.1886 2.86999C53.3123 3.10574 53.3743 3.37717 53.3743 3.68372ZM60.7154 4.42659V8.7957C60.7154 9.32657 60.8981 9.77466 61.2638 10.1402C61.6294 10.5059 62.0833 10.6887 62.6259 10.6887H68.8876C69.1237 10.6887 69.3299 10.7712 69.5068 10.9361C69.6838 11.1014 69.7721 11.3076 69.7721 11.5553L69.7545 12.7229C69.7545 12.9703 69.6689 13.1798 69.4981 13.3508C69.327 13.5216 69.1237 13.6074 68.8876 13.6074H61.8651C61.6528 13.6074 61.3933 13.5187 61.0868 13.3418C60.9926 13.2947 60.8627 13.1885 60.6978 13.0235L61.2813 15.3585H71.6651C72.1956 15.3585 72.6437 15.1757 73.0093 14.81C73.3749 14.4445 73.5577 13.9964 73.5577 13.4658V8.7957C73.5577 8.27687 73.3778 7.82878 73.0181 7.45149C72.6583 7.07414 72.2073 6.8855 71.6651 6.8855H65.3852C65.1377 6.8855 64.9312 6.80272 64.7663 6.63776C64.601 6.47253 64.5185 6.26633 64.5185 6.01859V5.13412C64.5185 4.88639 64.601 4.68018 64.7663 4.51495C64.9312 4.34999 65.1377 4.26749 65.3852 4.26749H72.408C72.62 4.26749 72.8795 4.35585 73.1863 4.53279C73.2804 4.57984 73.4103 4.68603 73.5753 4.85099L72.9915 2.51611H62.6259C62.107 2.51611 61.6589 2.70476 61.2813 3.08232C60.904 3.45967 60.7154 3.90776 60.7154 4.42659ZM80.8809 9.8042H86.1345V14.1909C86.1345 14.5094 86.0787 14.7747 85.9666 14.987C85.8546 15.1994 85.716 15.3231 85.5507 15.3585H90.5039C90.3858 15.3585 90.2504 15.2464 90.0971 15.0224C89.9789 14.7513 89.9201 14.474 89.9201 14.1909V3.68372C89.9201 3.40058 89.9731 3.12358 90.0792 2.85215C90.1854 2.66351 90.327 2.55151 90.5039 2.51611H85.5507C85.6923 2.51611 85.8251 2.63396 85.9488 2.86999C86.0728 3.10574 86.1345 3.37717 86.1345 3.68372V8.05283H80.8809V3.68372C80.8809 3.38887 80.9338 3.12943 81.04 2.90539C81.1462 2.68134 81.2878 2.55151 81.4647 2.51611H76.494C76.6355 2.51611 76.7683 2.63396 76.892 2.86999C77.0158 3.10574 77.0778 3.37717 77.0778 3.68372V14.1909C77.0778 14.5094 77.0216 14.7747 76.9096 14.987C76.7976 15.1994 76.6592 15.3231 76.494 15.3585H81.4647C81.3232 15.3585 81.1816 15.2523 81.04 15.0399C80.9338 14.8279 80.8809 14.5448 80.8809 14.1909V9.8042ZM95.2623 15.3585H104.885C105.416 15.3585 105.864 15.1757 106.23 14.81C106.595 14.4445 106.778 13.9964 106.778 13.4658V4.42659C106.778 3.90776 106.598 3.45967 106.238 3.08232C105.879 2.70476 105.428 2.51611 104.885 2.51611H95.2623C94.7435 2.51611 94.2954 2.70476 93.9178 3.08232C93.5405 3.45967 93.3518 3.90776 93.3518 4.42659V13.4658C93.3518 13.9964 93.5347 14.4445 93.9002 14.81C94.2658 15.1757 94.7198 15.3585 95.2623 15.3585ZM98.0216 4.26749H102.108C102.344 4.26749 102.55 4.34999 102.727 4.51495C102.904 4.68018 102.992 4.88639 102.992 5.13412V12.7229C102.992 12.9233 102.901 13.1207 102.718 13.3155C102.536 13.51 102.332 13.6074 102.108 13.6074H98.0216C97.7742 13.6074 97.5677 13.5246 97.4027 13.3596C97.2375 13.1944 97.155 12.9824 97.155 12.7229V5.13412C97.155 4.88639 97.2375 4.68018 97.4027 4.51495C97.5677 4.34999 97.7742 4.26749 98.0216 4.26749ZM123.211 2.51611H120.292C120.434 2.51611 120.566 2.63396 120.69 2.86999C120.814 3.10574 120.876 3.37717 120.876 3.68372V12.4398L114.154 2.51611H109.201C109.343 2.51611 109.475 2.63396 109.599 2.86999C109.723 3.10574 109.785 3.37717 109.785 3.68372V14.1909C109.785 14.5094 109.729 14.7747 109.617 14.987C109.505 15.1994 109.366 15.3231 109.201 15.3585H112.12C111.978 15.3585 111.837 15.2523 111.695 15.0399C111.589 14.8279 111.536 14.5448 111.536 14.1909V5.43482L118.24 15.3585H122.627V3.68372C122.627 3.38887 122.68 3.12943 122.786 2.90539C122.892 2.68134 123.034 2.55151 123.211 2.51611ZM136.142 2.51611H127.545C127.026 2.51611 126.578 2.70476 126.2 3.08232C125.823 3.45967 125.634 3.90776 125.634 4.42659V13.4658C125.634 13.9964 125.817 14.4445 126.183 14.81C126.548 15.1757 127.002 15.3585 127.545 15.3585H136.159L136.743 13.0235L136.407 13.3064C136.112 13.507 135.835 13.6074 135.576 13.6074H130.304C130.057 13.6074 129.85 13.5246 129.685 13.3596C129.52 13.1944 129.438 12.9824 129.438 12.7229V5.13412C129.438 4.88639 129.52 4.68018 129.685 4.51495C129.85 4.34999 130.057 4.26749 130.304 4.26749H135.558C135.747 4.26749 135.959 4.3263 136.195 4.44415C136.454 4.55035 136.631 4.68603 136.725 4.85099L136.142 2.51611ZM143.943 9.8042H149.196V14.1909C149.196 14.5094 149.14 14.7747 149.028 14.987C148.916 15.1994 148.778 15.3231 148.612 15.3585H153.566C153.448 15.3585 153.312 15.2464 153.159 15.0224C153.041 14.7513 152.982 14.474 152.982 14.1909V3.68372C152.982 3.40058 153.035 3.12358 153.141 2.85215C153.247 2.66351 153.389 2.55151 153.566 2.51611H148.612C148.754 2.51611 148.887 2.63396 149.011 2.86999C149.135 3.10574 149.196 3.37717 149.196 3.68372V8.05283H143.943V3.68372C143.943 3.38887 143.996 3.12943 144.102 2.90539C144.208 2.68134 144.35 2.55151 144.527 2.51611H139.556C139.697 2.51611 139.83 2.63396 139.954 2.86999C140.078 3.10574 140.14 3.37717 140.14 3.68372V14.1909C140.14 14.5094 140.083 14.7747 139.971 14.987C139.859 15.1994 139.721 15.3231 139.556 15.3585H144.527C144.385 15.3585 144.243 15.2523 144.102 15.0399C143.996 14.8279 143.943 14.5448 143.943 14.1909V9.8042Z" fill="#78B347"/>
<path fill-rule="evenodd" clip-rule="evenodd" d="M151.644 18.5586H54.7124C53.2172 18.5586 51.9934 19.7821 51.9934 21.2775V21.2781C51.9934 22.7736 53.2172 23.9968 54.7124 23.9968H151.644C153.139 23.9968 154.363 22.7736 154.363 21.2781V21.2775C154.363 19.7821 153.139 18.5586 151.644 18.5586Z" fill="#ED3237"/>
<path d="M78.3041 23.0804V23.2623H76.4423V23.0804H76.4958C76.5743 23.0804 76.6135 23.034 76.6135 22.9413C76.6135 22.9057 76.6037 22.8664 76.5841 22.8236C76.5645 22.7808 76.5511 22.7505 76.544 22.7327L75.8538 21.4059H75.8164V22.5882C75.8164 22.763 75.8333 22.8887 75.8672 22.9654C75.901 23.0421 75.968 23.0804 76.0678 23.0804H76.1534V23.2623H74.1899V23.0804H74.2755C74.3682 23.0804 74.4334 23.0412 74.4708 22.9627C74.5083 22.8843 74.527 22.7594 74.527 22.5882V19.9667C74.527 19.7812 74.5074 19.6528 74.4681 19.5814C74.4289 19.5102 74.3629 19.4745 74.2701 19.4745H74.1899V19.2926H76.1534V19.4745H76.0625C75.9662 19.4745 75.901 19.5173 75.8672 19.6029C75.8333 19.6885 75.8164 19.8098 75.8164 19.9667V21.0474H75.8538L76.4583 20.4161C76.6082 20.2592 76.7134 20.1298 76.774 20.0282C76.8346 19.9265 76.865 19.8365 76.865 19.758C76.865 19.569 76.7401 19.4745 76.4905 19.4745V19.2926H78.0955V19.4745C77.9885 19.4745 77.8788 19.5075 77.7665 19.5735C77.6541 19.6394 77.5124 19.7616 77.3412 19.9399L76.7099 20.598L77.8119 22.4866C77.9403 22.7041 78.0188 22.8307 78.0473 22.8664C78.1222 22.9556 78.2079 23.0269 78.3041 23.0804ZM83.4751 23.0804V23.2623H82.0733L81.0782 21.4433H81.0568V22.5882C81.0568 22.7451 81.0738 22.8664 81.1076 22.952C81.1415 23.0376 81.2066 23.0804 81.303 23.0804H81.3939V23.2623H79.4304V23.0804H79.516C79.6087 23.0804 79.6738 23.0412 79.7112 22.9627C79.7487 22.8843 79.7674 22.7594 79.7674 22.5882V19.9667C79.7674 19.7919 79.7505 19.6662 79.7166 19.5895C79.6827 19.5128 79.6159 19.4745 79.516 19.4745H79.4304V19.2926H81.7524C82.323 19.2926 82.726 19.4281 82.9614 19.6991C83.1077 19.8668 83.1808 20.0719 83.1808 20.3144C83.1808 20.5427 83.113 20.7407 82.9775 20.9083C82.8205 21.1045 82.5923 21.2311 82.2927 21.2882L83.1754 22.829C83.2182 22.8967 83.262 22.9529 83.3065 22.9975C83.3511 23.0421 83.4073 23.0697 83.4751 23.0804ZM81.9075 20.3359C81.9075 20.1326 81.854 19.9756 81.7469 19.865C81.6079 19.7224 81.3778 19.651 81.0568 19.651V21.0849H81.1157C81.3047 21.0849 81.4616 21.0492 81.5865 20.9778C81.8005 20.853 81.9075 20.639 81.9075 20.3359ZM87.6776 22.1281L87.8916 22.203L87.6348 23.2623H84.5638V23.0804H84.6708C84.7707 23.0804 84.834 23.0314 84.8607 22.9333C84.8875 22.8352 84.9009 22.7202 84.9009 22.5882V19.9667C84.9009 19.7705 84.8813 19.6394 84.842 19.5735C84.8028 19.5075 84.7457 19.4745 84.6708 19.4745H84.5638V19.2926H87.5813L87.6348 20.3733H87.4368C87.4011 20.1022 87.2656 19.9042 87.0302 19.7794C86.8626 19.6938 86.6682 19.651 86.4471 19.651H86.1902V21.0527C86.39 21.0527 86.5326 20.9948 86.6182 20.8789C86.7038 20.7629 86.7467 20.5962 86.7467 20.3786H86.9553V22.0853H86.7467C86.7467 21.8784 86.7047 21.7144 86.6209 21.5931C86.5371 21.4718 86.3935 21.4112 86.1902 21.4112V22.5615C86.1902 22.6899 86.2108 22.7835 86.2518 22.8423C86.2928 22.9012 86.3739 22.9306 86.4952 22.9306C86.752 22.9306 86.9892 22.8628 87.2068 22.7273C87.4386 22.5811 87.5956 22.3813 87.6776 22.1281ZM93.437 21.2079C93.437 21.7786 93.2604 22.2512 92.9073 22.6257C92.5043 23.0501 91.9425 23.2623 91.222 23.2623H89.1302V23.0804H89.2157C89.2978 23.0804 89.3602 23.051 89.403 22.9922C89.4458 22.9333 89.4672 22.7987 89.4672 22.5882V19.9667C89.4672 19.799 89.4547 19.6831 89.4297 19.6189C89.394 19.5226 89.3228 19.4745 89.2157 19.4745H89.1302V19.2926H91.1364C91.2684 19.2926 91.395 19.2979 91.5163 19.3086C91.6376 19.3193 91.7535 19.3372 91.864 19.3621C92.2921 19.4513 92.638 19.6171 92.902 19.8596C93.2586 20.1843 93.437 20.6337 93.437 21.2079ZM91.9925 21.2721C91.9925 20.6658 91.8694 20.2324 91.6233 19.972C91.4236 19.7581 91.1346 19.651 90.7566 19.651V22.5936C90.7566 22.8182 90.8529 22.9306 91.0455 22.9306C91.2952 22.9306 91.502 22.8182 91.6661 22.5936C91.8836 22.3011 91.9925 21.8606 91.9925 21.2721ZM96.7514 23.0804V23.2623H94.7879V23.0804H94.8788C94.9608 23.0804 95.0224 23.0484 95.0634 22.9841C95.1044 22.9199 95.1249 22.7879 95.1249 22.5882V19.9667C95.1249 19.8062 95.1143 19.6938 95.0928 19.6296C95.0536 19.5262 94.9823 19.4745 94.8788 19.4745H94.7879V19.2926H96.7514V19.4745H96.6711C96.5498 19.4745 96.4767 19.5217 96.4517 19.6162C96.4268 19.7108 96.4143 19.8275 96.4143 19.9667V22.5882C96.4143 22.7559 96.4295 22.8798 96.4598 22.9601C96.4901 23.0403 96.5606 23.0804 96.6711 23.0804H96.7514ZM101.553 19.2926L101.601 20.4161H101.393C101.353 20.1949 101.259 20.0166 101.109 19.8811C100.945 19.7277 100.735 19.651 100.478 19.651H100.403V22.5882C100.403 22.7737 100.42 22.9021 100.454 22.9735C100.488 23.0447 100.563 23.0804 100.681 23.0804H100.815V23.2623H98.7015V23.0804H98.8513C98.9405 23.0804 99.0065 23.051 99.0492 22.9922C99.0921 22.9333 99.1135 22.7987 99.1135 22.5882V19.651H99.0386C98.7854 19.651 98.5767 19.7277 98.4126 19.8811C98.2557 20.0202 98.1593 20.1985 98.1237 20.4161H97.915L97.9632 19.2926H101.553ZM110.927 22.0639C110.927 22.5312 110.743 22.8789 110.375 23.1072C110.101 23.2819 109.764 23.3693 109.364 23.3693C109.097 23.3693 108.819 23.3194 108.53 23.2195C108.448 23.191 108.367 23.1634 108.286 23.1366C108.206 23.1099 108.143 23.0965 108.096 23.0965C108.025 23.0965 107.969 23.1206 107.928 23.1687C107.887 23.2168 107.87 23.273 107.877 23.3372H107.663V21.8392H107.877C107.945 22.1673 108.134 22.4545 108.444 22.7006C108.733 22.9253 109.025 23.0376 109.322 23.0376C109.489 23.0376 109.628 22.9912 109.739 22.8985C109.849 22.8058 109.905 22.6702 109.905 22.4919C109.905 22.3242 109.824 22.1923 109.664 22.096C109.603 22.0604 109.496 22.0104 109.343 21.9462C109.189 21.882 109.026 21.816 108.853 21.7482C108.68 21.6805 108.517 21.6127 108.364 21.5449C108.21 21.4772 108.103 21.4183 108.043 21.3684C107.754 21.1401 107.609 20.8334 107.609 20.4482C107.609 20.2556 107.648 20.0817 107.724 19.9265C107.801 19.7714 107.911 19.6386 108.054 19.5279C108.196 19.4174 108.369 19.3327 108.572 19.2738C108.776 19.215 109.002 19.1855 109.252 19.1855C109.477 19.1855 109.696 19.2301 109.91 19.3193C110.013 19.3621 110.09 19.3933 110.14 19.4129C110.19 19.4325 110.233 19.4424 110.269 19.4424C110.318 19.4424 110.361 19.4281 110.397 19.3996C110.433 19.371 110.45 19.3282 110.45 19.2712V19.2177H110.659V20.5873H110.45C110.404 20.3305 110.311 20.1129 110.172 19.9345C109.969 19.6778 109.691 19.5494 109.338 19.5494C109.173 19.5494 109.032 19.5841 108.912 19.6537C108.793 19.7232 108.733 19.8258 108.733 19.9614C108.733 20.0648 108.77 20.1602 108.845 20.2476C108.92 20.3349 109.033 20.409 109.182 20.4696C109.318 20.5266 109.455 20.5766 109.594 20.6194C109.733 20.6622 109.871 20.7121 110.006 20.7692C110.135 20.8227 110.251 20.886 110.354 20.9591C110.457 21.0322 110.545 21.1098 110.616 21.1918C110.823 21.4237 110.927 21.7144 110.927 22.0639ZM116.097 23.0804V23.2623H114.3V23.0804C114.353 23.0876 114.4 23.0777 114.439 23.051C114.478 23.0243 114.498 22.977 114.498 22.9092C114.498 22.8878 114.496 22.8646 114.492 22.8397C114.489 22.8147 114.476 22.7719 114.455 22.7113L114.214 21.9943H113.241L113.128 22.3261C113.103 22.3974 113.084 22.4616 113.072 22.5187C113.059 22.5757 113.053 22.6364 113.053 22.7006C113.053 22.8111 113.084 22.9021 113.144 22.9735C113.205 23.0447 113.281 23.0804 113.374 23.0804V23.2623H112.053V23.0804C112.199 23.0661 112.315 22.9948 112.401 22.8664C112.486 22.738 112.563 22.5793 112.631 22.3903L113.808 19.1855H114.546L115.792 22.7273C115.835 22.8486 115.88 22.9342 115.926 22.9841C115.973 23.034 116.03 23.0661 116.097 23.0804ZM113.364 21.6359H114.097L113.733 20.5392L113.364 21.6359ZM120.894 19.2926V19.4745C120.815 19.4923 120.741 19.5512 120.669 19.651C120.598 19.7509 120.53 19.8828 120.466 20.0469L119.198 23.3693H118.47L117.229 20.0095C117.154 19.8098 117.091 19.6742 117.039 19.6029C116.987 19.5315 116.924 19.4887 116.849 19.4745V19.2926H118.722V19.4745C118.665 19.4745 118.616 19.4923 118.577 19.5279C118.538 19.5636 118.518 19.6153 118.518 19.6831C118.518 19.7259 118.522 19.7607 118.529 19.7874C118.536 19.8142 118.558 19.8775 118.593 19.9774L119.278 21.9194H119.3L119.883 20.3198C119.911 20.2377 119.935 20.1539 119.955 20.0683C119.975 19.9827 119.984 19.8989 119.984 19.8169C119.984 19.7027 119.947 19.6171 119.872 19.56C119.797 19.503 119.71 19.4745 119.61 19.4745V19.2926H120.894ZM126.252 21.2079C126.252 21.7786 126.075 22.2512 125.722 22.6257C125.319 23.0501 124.758 23.2623 124.037 23.2623H121.945V23.0804H122.031C122.113 23.0804 122.175 23.051 122.218 22.9922C122.261 22.9333 122.282 22.7987 122.282 22.5882V19.9667C122.282 19.799 122.27 19.6831 122.245 19.6189C122.209 19.5226 122.138 19.4745 122.031 19.4745H121.945V19.2926H123.951C124.083 19.2926 124.21 19.2979 124.331 19.3086C124.453 19.3193 124.569 19.3372 124.679 19.3621C125.107 19.4513 125.453 19.6171 125.717 19.8596C126.074 20.1843 126.252 20.6337 126.252 21.2079ZM124.807 21.2721C124.807 20.6658 124.684 20.2324 124.438 19.972C124.239 19.7581 123.95 19.651 123.572 19.651V22.5936C123.572 22.8182 123.668 22.9306 123.86 22.9306C124.11 22.9306 124.317 22.8182 124.481 22.5936C124.699 22.3011 124.807 21.8606 124.807 21.2721ZM132.167 21.2774C132.167 21.8481 131.988 22.3242 131.632 22.7059C131.221 23.1482 130.645 23.3693 129.903 23.3693C129.165 23.3693 128.591 23.1482 128.181 22.7059C127.82 22.3136 127.64 21.8374 127.64 21.2774C127.64 20.7139 127.82 20.2377 128.181 19.849C128.591 19.4067 129.165 19.1855 129.903 19.1855C130.642 19.1855 131.218 19.4049 131.632 19.8436C131.988 20.2217 132.167 20.6996 132.167 21.2774ZM130.722 21.2774C130.722 20.8316 130.668 20.4589 130.562 20.1593C130.415 19.7527 130.196 19.5494 129.903 19.5494C129.615 19.5494 129.397 19.7509 129.251 20.1539C129.14 20.4607 129.085 20.8352 129.085 21.2774C129.085 21.7233 129.138 22.096 129.245 22.3956C129.392 22.8022 129.611 23.0055 129.903 23.0055C130.192 23.0055 130.41 22.804 130.556 22.401C130.667 22.0942 130.722 21.7197 130.722 21.2774Z" fill="#FEFEFE"/>
<path d="M103.467 21.8015V21.1631H105.44V21.8015H103.467Z" fill="#FEFEFE"/>
<defs>
<linearGradient id="paint0_linear" x1="23.529" y1="7.96494" x2="28.1577" y2="2.62174" gradientUnits="userSpaceOnUse">
<stop stop-color="#A8CF45"/>
<stop offset="1" stop-color="#78B347"/>
</linearGradient>
</defs>
</svg>
