<svg width="24" height="24" viewBox="0 0 24 24" fill="none" xmlns="http://www.w3.org/2000/svg">
<path d="M16.5512 12.8526C16.411 12.4863 12.382 9.87975 12.0504 9.90019C10.7407 9.98053 9.59194 10.5747 8.7285 11.6184C8.64384 11.7208 8.56594 11.8225 8.4945 11.9221C8.40858 11.7991 8.31319 11.6733 8.20777 11.5478C7.29722 10.4637 6.06961 9.89062 4.65773 9.89062C3.37097 9.89062 2.18142 10.4117 1.30823 11.3578C0.464578 12.2719 0 13.4862 0 14.777C0 16.0306 0.442266 17.1235 1.39177 18.2166C2.21902 19.1689 3.35203 20.0545 4.7865 21.1755C5.75855 21.9353 6.8603 22.7963 8.05092 23.8282C8.18306 23.9427 8.34722 24 8.51142 24C8.67562 24 8.83978 23.9427 8.97192 23.8282C10.1058 22.8455 11.1604 22.0137 12.0907 21.2797C13.5396 20.1368 14.6839 19.2341 15.5191 18.2651C16.4761 17.1547 16.9219 16.0463 16.9219 14.777C16.9219 14.1604 16.7902 13.4769 16.5512 12.8526Z" fill="url(#paint0_linear)"/>
<path d="M22.9919 1.80595C22.3966 0.982078 21.2896 0 19.3964 0C17.9876 0 16.7525 0.570984 15.8245 1.65117C15.7148 1.77886 15.6155 1.90683 15.5261 2.0318C15.4401 1.9087 15.3447 1.7828 15.2391 1.65717C14.3286 0.573047 13.101 0 11.6891 0C10.4035 0 9.22881 0.524438 8.38145 1.47666C7.5759 2.38195 7.13232 3.59287 7.13232 4.88634C7.13232 7.57162 9.04436 9.08142 11.9385 11.3668C12.874 12.1054 13.9341 12.9426 15.0822 13.9376C15.2144 14.0521 15.3785 14.1094 15.5427 14.1094C15.7069 14.1094 15.8711 14.0521 16.0032 13.9376C17.1567 12.9379 18.2307 12.0948 19.1781 11.3509C20.6211 10.218 21.761 9.32316 22.5956 8.35945C23.5538 7.25302 24.0001 6.14944 24.0001 4.88634C24.0001 3.83119 23.6232 2.67961 22.9919 1.80595Z" fill="url(#paint1_linear)"/>
<defs>
<linearGradient id="paint0_linear" x1="8.46094" y1="24" x2="8.46094" y2="9.89063" gradientUnits="userSpaceOnUse">
<stop stop-color="#FD3A84"/>
<stop offset="1" stop-color="#FFA68D"/>
</linearGradient>
<linearGradient id="paint1_linear" x1="15.5662" y1="14.1094" x2="15.5662" y2="0" gradientUnits="userSpaceOnUse">
<stop stop-color="#FFC2CC"/>
<stop offset="1" stop-color="#FFF2F4"/>
</linearGradient>
</defs>
</svg>
