<svg width="18" height="32" viewBox="0 0 18 32" fill="none" xmlns="http://www.w3.org/2000/svg">
<path d="M14.625 0H13.9088C13.5514 0 13.2301 0.198563 13.0702 0.51825L12.2318 2.19531C11.7523 3.15425 10.7883 3.75 9.71619 3.75H8.28381C7.21163 3.75 6.24775 3.15425 5.76819 2.19531L4.92969 0.51825C4.76988 0.198563 4.44856 0 4.09119 0H3.375C1.82419 0 0.5625 1.26169 0.5625 2.8125V29.1875C0.5625 30.7383 1.82419 32 3.375 32H14.625C16.1758 32 17.4375 30.7383 17.4375 29.1875V2.8125C17.4375 1.26169 16.1758 0 14.625 0ZM9 28.25C8.48225 28.25 8.0625 27.8302 8.0625 27.3125C8.0625 26.7948 8.48225 26.375 9 26.375C9.51775 26.375 9.9375 26.7948 9.9375 27.3125C9.9375 27.8302 9.51775 28.25 9 28.25Z" fill="url(#paint0_linear)"/>
<defs>
<linearGradient id="paint0_linear" x1="9" y1="32" x2="9" y2="0" gradientUnits="userSpaceOnUse">
<stop stop-color="#A93AFF"/>
<stop offset="1" stop-color="#FF81FF"/>
</linearGradient>
</defs>
</svg>
