<svg width="24" height="24" viewBox="0 0 24 24" fill="none" xmlns="http://www.w3.org/2000/svg">
<path d="M12 24C18.6274 24 24 18.6274 24 12C24 5.37258 18.6274 0 12 0C5.37258 0 0 5.37258 0 12C0 18.6274 5.37258 24 12 24Z" fill="url(#paint0_linear)"/>
<path d="M15.5156 7.78125C15.5156 5.84273 13.9385 4.26562 12 4.26562C10.0615 4.26562 8.48438 5.84273 8.48438 7.78125C8.48438 9.71977 10.0615 11.2969 12 11.2969C13.9385 11.2969 15.5156 9.71977 15.5156 7.78125ZM12 11.2969C8.51067 11.2969 5.67188 14.1357 5.67188 17.625V18.284C5.67188 18.4838 5.75691 18.6743 5.90578 18.8076C7.6185 20.3423 9.78281 21.1875 12 21.1875C14.2172 21.1875 16.3815 20.3423 18.0942 18.8076C18.2431 18.6743 18.3281 18.4838 18.3281 18.284V17.625C18.3281 14.1357 15.4893 11.2969 12 11.2969Z" fill="url(#paint1_linear)"/>
<defs>
<linearGradient id="paint0_linear" x1="12" y1="24" x2="12" y2="0" gradientUnits="userSpaceOnUse">
<stop stop-color="#5558FF"/>
<stop offset="1" stop-color="#00C0FF"/>
</linearGradient>
<linearGradient id="paint1_linear" x1="12" y1="21.1875" x2="12" y2="4.26562" gradientUnits="userSpaceOnUse">
<stop stop-color="#ADDCFF"/>
<stop offset="0.5028" stop-color="#EAF6FF"/>
<stop offset="1" stop-color="#EAF6FF"/>
</linearGradient>
</defs>
</svg>
