<svg width="24" height="24" viewBox="0 0 24 24" fill="none" xmlns="http://www.w3.org/2000/svg">
<path d="M12 24C18.6274 24 24 18.6274 24 12C24 5.37258 18.6274 0 12 0C5.37258 0 0 5.37258 0 12C0 18.6274 5.37258 24 12 24Z" fill="url(#paint0_linear)"/>
<path d="M8.48439 11.2969C10.0355 11.2969 11.2969 10.0355 11.2969 8.48438C11.2969 6.93323 10.0355 5.67188 8.48439 5.67188C6.93325 5.67188 5.67189 6.93323 5.67189 8.48438C5.67189 10.0355 6.93325 11.2969 8.48439 11.2969ZM18.1221 5.87789C17.8475 5.60325 17.4025 5.60325 17.1279 5.87789L5.87786 17.1279C5.60321 17.4025 5.60321 17.8475 5.87786 18.1222C6.0152 18.2595 6.19511 18.3282 6.37496 18.3282C6.55482 18.3282 6.73478 18.2595 6.87207 18.1222L18.1221 6.87216C18.3968 6.59747 18.3968 6.15253 18.1221 5.87789V5.87789ZM15.5156 12.7031C13.9645 12.7031 12.7031 13.9645 12.7031 15.5156C12.7031 17.0668 13.9645 18.3281 15.5156 18.3281C17.0668 18.3281 18.3281 17.0668 18.3281 15.5156C18.3281 13.9645 17.0668 12.7031 15.5156 12.7031Z" fill="url(#paint1_linear)"/>
<defs>
<linearGradient id="paint0_linear" x1="12" y1="24" x2="12" y2="0" gradientUnits="userSpaceOnUse">
<stop stop-color="#FD3A84"/>
<stop offset="1" stop-color="#FFA68D"/>
</linearGradient>
<linearGradient id="paint1_linear" x1="12" y1="18.3281" x2="12" y2="5.67187" gradientUnits="userSpaceOnUse">
<stop stop-color="#FFC2CC"/>
<stop offset="1" stop-color="#FFF2F4"/>
</linearGradient>
</defs>
</svg>
