<svg width="32" height="32" viewBox="0 0 32 32" fill="none" xmlns="http://www.w3.org/2000/svg">
<g clip-path="url(#clip0)">
<path d="M31.9319 25.4375C31.4907 22.3919 28.9294 20.0144 25.7826 19.825C25.7786 19.8208 25.7749 19.8167 25.771 19.8125L21.6251 18.875L24.3051 17.9375C23.9078 17.3069 23.6021 16.6802 23.3667 16.0625L21.6251 15.125L22.8382 14.1875C22.7148 13.5432 22.6479 12.916 22.6103 12.3125L21.625 11.375L22.3833 10.4376C22.06 9.10493 21.3763 7.863 20.4131 6.89944C20.0469 6.53382 19.4531 6.53382 19.0869 6.89944L17.2119 8.77443C15.51 10.4769 12.74 10.4769 11.0382 8.77443C9.30129 7.03819 9.27317 4.24008 10.9757 2.53821C11.1588 2.35508 11.25 2.11508 11.25 1.87508C11.25 1.63509 11.1588 1.39509 10.9757 1.21196C10.6094 0.846338 10.0157 0.846338 9.64942 1.21196L2.302 8.55943L3.36969 11.625L14.7395 24.5194C16.337 26.2944 20.4982 29.1875 22.8863 29.1875H29.8125L32 27.3125V26.375C32 26.0569 31.9769 25.7437 31.9319 25.4375Z" fill="url(#paint0_linear)"/>
<path d="M19.75 16.0627H23.3667C23.124 15.4261 22.9552 14.7992 22.8382 14.1877H19.75C19.2323 14.1877 18.8125 14.6074 18.8125 15.1252C18.8125 15.6429 19.2323 16.0627 19.75 16.0627ZM19.75 19.8127H25.771C25.1788 19.1873 24.6976 18.5607 24.3051 17.9377H19.75C19.2323 17.9377 18.8125 18.3574 18.8125 18.8752C18.8125 19.3929 19.2323 19.8127 19.75 19.8127ZM19.75 12.3127H22.6103C22.6012 12.1652 22.5937 12.0191 22.5875 11.8746C22.567 11.3897 22.4974 10.9081 22.3833 10.4377H19.75C19.2323 10.4377 18.8125 10.8574 18.8125 11.3752C18.8125 11.8929 19.2323 12.3127 19.75 12.3127ZM22.8863 27.3126C20.4982 27.3126 18.2119 26.2945 16.6144 24.5195L2.30198 8.55957L0.274491 10.5871C-0.0773831 10.9396 -0.093008 11.5052 0.239491 11.8758L13.8263 27.0282C16.1338 29.592 19.4357 31.0626 22.8857 31.0626H31.0625C31.58 31.0626 32 30.6426 32 30.1251V27.3126H22.8863Z" fill="url(#paint1_linear)"/>
</g>
<defs>
<linearGradient id="paint0_linear" x1="17.151" y1="29.1875" x2="17.151" y2="0.937712" gradientUnits="userSpaceOnUse">
<stop stop-color="#5558FF"/>
<stop offset="1" stop-color="#00C0FF"/>
</linearGradient>
<linearGradient id="paint1_linear" x1="16" y1="31.0626" x2="16" y2="8.55957" gradientUnits="userSpaceOnUse">
<stop stop-color="#ADDCFF"/>
<stop offset="0.5028" stop-color="#EAF6FF"/>
<stop offset="1" stop-color="#EAF6FF"/>
</linearGradient>
<clipPath id="clip0">
<rect width="32" height="32" fill="white"/>
</clipPath>
</defs>
</svg>
