<svg width="16" height="10" viewBox="0 0 16 10" fill="none" xmlns="http://www.w3.org/2000/svg">
<path d="M13.277 5.68504C13.018 5.35804 13.093 5.21304 13.277 4.92104C13.28 4.91804 15.416 1.96703 15.635 0.966032L15.636 0.965033C15.746 0.600032 15.636 0.332031 15.107 0.332031H13.357C12.912 0.332031 12.706 0.562032 12.597 0.819032C12.597 0.819032 11.706 2.95104 10.446 4.33304C10.039 4.73204 9.852 4.86104 9.629 4.86104C9.519 4.86104 9.35 4.73304 9.35 4.36804V0.965033C9.35 0.528032 9.225 0.332031 8.857 0.332031H6.106C5.827 0.332031 5.661 0.536032 5.661 0.726032C5.661 1.14003 6.291 1.23603 6.356 2.40303V4.93504C6.356 5.48904 6.255 5.59104 6.032 5.59104C5.438 5.59104 3.994 3.45004 3.139 1.00103C2.967 0.526032 2.797 0.333032 2.349 0.333032H0.6C0.101 0.333032 0 0.563032 0 0.820032C0 1.27503 0.594 3.53504 2.765 6.52204C4.212 8.56104 6.249 9.66605 8.102 9.66605C9.216 9.66605 9.352 9.42104 9.352 8.99804C9.352 7.05004 9.251 6.86604 9.809 6.86604C10.068 6.86604 10.513 6.99404 11.553 7.97704C12.741 9.14404 12.937 9.66605 13.602 9.66605H15.352C15.851 9.66605 16.104 9.42105 15.958 8.93705C15.626 7.92004 13.378 5.82504 13.277 5.68504Z" fill="#BE63F9"/>
</svg>
