<svg width="26" height="32" viewBox="0 0 26 32" fill="none" xmlns="http://www.w3.org/2000/svg">
<path d="M7.82503 19.75H11.575C12.0969 19.75 12.5913 19.5339 12.8934 19.1943L16.625 15.4617C16.9912 15.1156 17.2 14.6286 17.2 14.125C17.2 13.6214 16.9912 13.1344 16.6598 12.8231C16.3155 12.4587 15.8285 12.25 15.325 12.25C14.8215 12.25 14.3343 12.4587 14.0085 12.8039L10.795 16H7.82503C6.77403 16 5.95003 16.824 5.95003 17.875C5.95003 18.926 6.77396 19.75 7.82503 19.75ZM24.7 13.1875H21.8509C21.3327 13.1875 20.9134 13.6068 20.9134 14.125C20.9134 14.6432 21.3327 15.0625 21.8509 15.0625H24.7C25.2182 15.0625 25.6375 14.6432 25.6375 14.125C25.6375 13.6068 25.2182 13.1875 24.7 13.1875ZM17.6447 20.6381C17.3096 20.4888 16.9159 20.5465 16.6376 20.7946C15.8429 21.5042 12.4646 24.3524 11.6352 25.0711C10.8917 24.4329 10.1795 23.8296 9.50015 23.2565C8.45646 22.3749 7.49515 21.5627 6.6364 20.7946C6.3599 20.5465 5.96621 20.4888 5.62934 20.6381C5.2924 20.7891 5.07453 21.1242 5.07453 21.4941V31.0625C5.07453 31.5807 5.49384 32 6.01203 32H17.262C17.7802 32 18.1995 31.5807 18.1995 31.0625V21.4941C18.1995 21.1242 17.9816 20.7891 17.6447 20.6381ZM17.262 0H6.01196C5.49378 0 5.07446 0.419312 5.07446 0.9375V8.53756C5.07446 8.82231 5.20446 9.09144 5.42596 9.26906C5.64759 9.44756 5.93871 9.51806 6.21521 9.45219C6.28115 9.43844 6.35803 9.43756 6.49903 9.43756C8.28796 9.43756 9.93778 10.5994 11.0053 11.5735C11.1847 11.7374 11.41 11.8189 11.637 11.8189C11.864 11.8189 12.0892 11.7374 12.2687 11.5735C13.3362 10.5994 14.986 9.43756 16.7749 9.43756C16.9159 9.43756 16.9928 9.4385 17.0587 9.45219C17.3334 9.51444 17.6282 9.44575 17.8478 9.26906C18.0695 9.09144 18.1995 8.82231 18.1995 8.53756V0.9375C18.1995 0.419312 17.7802 0 17.262 0V0Z" fill="url(#paint0_linear)"/>
<path d="M17.4062 7.61869C17.1249 7.5625 16.9187 7.5625 16.7125 7.5625C15.0252 7.5625 13.2625 8.275 11.575 9.64375C9.88749 8.275 8.12486 7.5625 6.43755 7.5625C6.2313 7.5625 6.02511 7.5625 5.87499 7.59994C2.6688 7.88125 0.362549 10.6 0.362549 14.0687C0.362549 17.1249 2.2563 19.4499 5.33111 22.1874C6.19374 22.9749 7.1688 23.7999 8.21867 24.6812C9.08111 25.4124 9.99986 26.1812 10.9561 27.025C11.1438 27.1749 11.35 27.25 11.575 27.25C11.8 27.25 12.025 27.1749 12.1939 27.025C13.2437 26.1062 17.0125 22.9187 17.8189 22.1874C18.175 21.8687 18.5124 21.5499 18.85 21.2312C20.8937 19.3 22.7874 17.0874 22.7874 14.0687C22.7875 10.6 20.4813 7.88125 17.4062 7.61869ZM15.9812 14.7812L12.2312 18.5312C12.0625 18.7188 11.8188 18.8125 11.575 18.8125H7.82505C7.29999 18.8125 6.88755 18.3999 6.88755 17.875C6.88755 17.3499 7.29999 16.9375 7.82505 16.9375H11.1814L14.6689 13.4687C15.0252 13.0937 15.6249 13.0937 15.9813 13.4687C16.3564 13.8249 16.3564 14.4249 15.9812 14.7812Z" fill="url(#paint1_linear)"/>
<defs>
<linearGradient id="paint0_linear" x1="15.356" y1="32" x2="15.356" y2="0" gradientUnits="userSpaceOnUse">
<stop stop-color="#ADDCFF"/>
<stop offset="0.5028" stop-color="#EAF6FF"/>
<stop offset="1" stop-color="#EAF6FF"/>
</linearGradient>
<linearGradient id="paint1_linear" x1="11.575" y1="27.25" x2="11.575" y2="7.5625" gradientUnits="userSpaceOnUse">
<stop stop-color="#5558FF"/>
<stop offset="1" stop-color="#00C0FF"/>
</linearGradient>
</defs>
</svg>
